<svg viewBox="0 0 1024 1024" version="1.1" xmlns="http://www.w3.org/2000/svg" width="64" height="64"><path d="M849.170732 0c97.404878 0 174.829268 77.42439 174.829268 174.829268v674.341464c0 97.404878-77.42439 174.829268-174.829268 174.829268H174.829268c-97.404878 0-174.829268-77.42439-174.829268-174.829268V174.829268c0-97.404878 77.42439-174.829268 174.829268-174.829268h674.341464z m-247.258537 249.756098H324.682927c-14.985366 0-24.97561 9.990244-27.473171 24.975609v439.570732H274.731707c-12.487805 0-24.97561 9.990244-24.975609 24.97561 0 12.487805 9.990244 22.478049 19.980487 24.97561H761.756098c12.487805 0 24.97561-9.990244 24.975609-24.97561 0-12.487805-9.990244-22.478049-19.980487-24.97561h-24.97561v-212.292683c0-14.985366-9.990244-24.97561-24.97561-27.473171h-44.956098c-14.985366 0-24.97561 9.990244-27.47317 24.97561v214.790244h-14.985366V277.229268c0-14.985366-9.990244-24.97561-24.97561-27.47317h-2.497561z m-162.341463 239.765853v79.921951h-79.921952v-79.921951h79.921952z m127.375609 0v79.921951h-79.921951v-79.921951h79.921951z m-127.375609-144.858536V424.585366h-79.921952v-79.921951h79.921952z m127.375609 0V424.585366h-79.921951v-79.921951h79.921951z" fill="currentColor"></path></svg>
